<svg xmlns="http://www.w3.org/2000/svg" width="760" height="520" viewBox="0 0 760 520" font-family="sans-serif"><rect width="760" height="520" fill="white"/>
<rect x="78" y="46" width="532" height="230" fill="none" stroke="#999"/>
<rect x="137.82358211561223" y="46" width="36.97636473321154" height="230" fill="#ffe08a" fill-opacity="0.55"/>
<text x="156.311764482218" y="62" font-size="11" font-style="italic" text-anchor="middle" fill="#7a5c00">transient</text>
<text x="156.311764482218" y="74" font-size="11" font-style="italic" text-anchor="middle" fill="#7a5c00">ferromagnet</text>
<line x1="78" y1="161.0" x2="610" y2="161.0" stroke="#bbb" stroke-dasharray="3 3"/>
<text x="70" y="257.0" font-size="11" text-anchor="end" fill="#333">-1.0</text>
<text x="70" y="211.0" font-size="11" text-anchor="end" fill="#333">-0.5</text>
<text x="70" y="119.0" font-size="11" text-anchor="end" fill="#333">0.5</text>
<text x="70" y="73.0" font-size="11" text-anchor="end" fill="#333">1.0</text>
<polyline points="78.0,60.6 79.3,60.6 80.7,60.6 82.0,60.6 83.3,60.6 84.7,60.7 86.0,68.7 87.3,85.6 88.7,103.3 90.0,118.7 91.3,128.6 92.7,134.5 94.0,141.6 95.3,147.7 96.7,152.0 98.0,154.9 99.3,156.8 100.7,157.9 102.0,158.5 103.3,158.7 104.7,158.8 106.0,158.9 107.3,158.9 108.7,159.0 110.0,159.0 111.3,159.1 112.7,159.2 114.0,159.2 115.3,159.3 116.7,159.3 118.0,159.4 119.3,159.5 120.7,159.5 122.0,159.6 123.3,159.7 124.7,159.8 126.0,159.9 127.3,160.0 128.7,160.1 130.0,160.2 131.3,160.3 132.7,160.4 134.0,160.6 135.3,160.7 136.7,160.9 138.0,161.0 139.3,161.2 140.7,161.4 142.0,161.6 143.3,161.7 144.7,161.9 146.0,162.1 147.3,162.2 148.7,162.4 150.0,162.6 151.3,162.7 152.7,162.9 154.0,163.0 155.3,163.3 156.7,163.6 158.0,163.9 159.3,164.1 160.7,164.4 162.0,164.6 163.3,164.9 164.7,165.3 166.0,165.6 167.3,166.1 168.7,166.6 170.0,167.2 171.3,167.8 172.7,168.6 174.0,169.5 175.3,170.4 176.7,171.4 178.0,172.6 179.3,173.8 180.7,175.2 182.0,176.7 183.3,178.2 184.7,179.9 186.0,181.8 187.3,183.7 188.7,185.8 190.0,188.0 191.3,190.4 192.7,193.0 194.0,195.7 195.3,198.6 196.7,201.7 198.0,204.9 199.3,208.4 200.7,211.8 202.0,215.2 203.3,218.6 204.7,221.9 206.0,225.2 207.3,228.4 208.7,231.4 210.0,234.4 211.3,237.2 212.7,239.8 214.0,242.3 215.3,244.6 216.7,246.7 218.0,248.7 219.3,250.4 220.7,252.0 222.0,253.3 223.3,254.6 224.7,255.6 226.0,256.5 227.3,257.3 228.7,258.0 230.0,258.5 231.3,259.0 232.7,259.4 234.0,259.7 235.3,260.0 236.7,260.3 238.0,260.4 239.3,260.6 240.7,260.7 242.0,260.8 243.3,260.9 244.7,261.0 246.0,261.0 247.3,261.1 248.7,261.1 250.0,261.1 251.3,261.1 252.7,261.1 254.0,261.2 255.3,261.2 256.7,261.2 258.0,261.2 259.3,261.2 260.7,261.2 262.0,261.2 263.3,261.2 264.7,261.2 266.0,261.2 267.3,261.2 268.7,261.2 270.0,261.2 271.3,261.2 272.7,261.2 274.0,261.2 275.3,261.2 276.7,261.2 278.0,261.2 279.3,261.2 280.7,261.2 282.0,261.2 283.3,261.2 284.7,261.2 286.0,261.2 287.3,261.2 288.7,261.2 290.0,261.2 291.3,261.2 292.7,261.2 294.0,261.2 295.3,261.2 296.7,261.2 298.0,261.2 299.3,261.2 300.7,261.2 302.0,261.2 303.3,261.2 304.7,261.2 306.0,261.2 307.3,261.2 308.7,261.2 310.0,261.2 311.3,261.2 312.7,261.2 314.0,261.2 315.3,261.2 316.7,261.2 318.0,261.2 319.3,261.2 320.7,261.2 322.0,261.2 323.3,261.2 324.7,261.2 326.0,261.2 327.3,261.2 328.7,261.2 330.0,261.2 331.3,261.2 332.7,261.2 334.0,261.2 335.3,261.2 336.7,261.2 338.0,261.2 339.3,261.2 340.7,261.2 342.0,261.2 343.3,261.2 344.7,261.2 346.0,261.2 347.3,261.2 348.7,261.2 350.0,261.2 351.3,261.2 352.7,261.2 354.0,261.2 355.3,261.2 356.7,261.2 358.0,261.2 359.3,261.2 360.7,261.2 362.0,261.2 363.3,261.2 364.7,261.2 366.0,261.2 367.3,261.2 368.7,261.2 370.0,261.2 371.3,261.2 372.7,261.2 374.0,261.2 375.3,261.2 376.7,261.2 378.0,261.2 379.3,261.2 380.7,261.2 382.0,261.2 383.3,261.2 384.7,261.2 386.0,261.2 387.3,261.2 388.7,261.2 390.0,261.2 391.3,261.2 392.7,261.2 394.0,261.2 395.3,261.2 396.7,261.2 398.0,261.2 399.3,261.2 400.7,261.2 402.0,261.2 403.3,261.2 404.7,261.2 406.0,261.2 407.3,261.2 408.7,261.2 410.0,261.2 411.3,261.2 412.7,261.2 414.0,261.2 415.3,261.2 416.7,261.2 418.0,261.2 419.3,261.2 420.7,261.2 422.0,261.2 423.3,261.2 424.7,261.2 426.0,261.2 427.3,261.2 428.7,261.2 430.0,261.2 431.3,261.2 432.7,261.2 434.0,261.2 435.3,261.2 436.7,261.2 438.0,261.2 439.3,261.2 440.7,261.2 442.0,261.2 443.3,261.2 444.7,261.2 446.0,261.2 447.3,261.2 448.7,261.2 450.0,261.2 451.3,261.2 452.7,261.2 454.0,261.2 455.3,261.2 456.7,261.2 458.0,261.2 459.3,261.2 460.7,261.2 462.0,261.2 463.3,261.2 464.7,261.2 466.0,261.2 467.3,261.2 468.7,261.2 470.0,261.2 471.3,261.2 472.7,261.2 474.0,261.2 475.3,261.2 476.7,261.2 478.0,261.2 479.3,261.2 480.7,261.2 482.0,261.2 483.3,261.2 484.7,261.2 486.0,261.2 487.3,261.2 488.7,261.2 490.0,261.2 491.3,261.2 492.7,261.2 494.0,261.2 495.3,261.2 496.7,261.2 498.0,261.2 499.3,261.2 500.7,261.2 502.0,261.2 503.3,261.2 504.7,261.2 506.0,261.2 507.3,261.2 508.7,261.2 510.0,261.2 511.3,261.2 512.7,261.2 514.0,261.2 515.3,261.2 516.7,261.2 518.0,261.2 519.3,261.2 520.7,261.2 522.0,261.2 523.3,261.2 524.7,261.2 526.0,261.2 527.3,261.2 528.7,261.2 530.0,261.2 531.3,261.2 532.7,261.2 534.0,261.2 535.3,261.2 536.7,261.2 538.0,261.2 539.3,261.2 540.7,261.2 542.0,261.2 543.3,261.2 544.7,261.2 546.0,261.2 547.3,261.2 548.7,261.2 550.0,261.2 551.3,261.2 552.7,261.2 554.0,261.2 555.3,261.2 556.7,261.2 558.0,261.2 559.3,261.2 560.7,261.2 562.0,261.2 563.3,261.2 564.7,261.2 566.0,261.2 567.3,261.2 568.7,261.2 570.0,261.2 571.3,261.2 572.7,261.2 574.0,261.2 575.3,261.2 576.7,261.2 578.0,261.2 579.3,261.2 580.7,261.2 582.0,261.2 583.3,261.2 584.7,261.2 586.0,261.2 587.3,261.2 588.7,261.2 590.0,261.2 591.3,261.2 592.7,261.2 594.0,261.2 595.3,261.2 596.7,261.2 598.0,261.2 599.3,261.2 600.7,261.2 602.0,261.2 603.3,261.2 604.7,261.2 606.0,261.2 607.3,261.2 608.7,261.2 610.0,261.2" fill="none" stroke="#d62728" stroke-width="2.2"/>
<polyline points="78.0,210.2 79.3,210.2 80.7,210.2 82.0,210.2 83.3,210.2 84.7,210.2 86.0,210.2 87.3,210.2 88.7,210.2 90.0,209.8 91.3,208.5 92.7,207.8 94.0,206.2 95.3,204.3 96.7,202.5 98.0,200.7 99.3,199.0 100.7,197.4 102.0,195.9 103.3,194.4 104.7,192.9 106.0,191.6 107.3,190.3 108.7,189.0 110.0,187.8 111.3,186.7 112.7,185.6 114.0,184.5 115.3,183.5 116.7,182.6 118.0,181.6 119.3,180.8 120.7,179.9 122.0,179.1 123.3,178.3 124.7,177.6 126.0,176.8 127.3,176.1 128.7,175.5 130.0,174.8 131.3,174.2 132.7,173.6 134.0,173.0 135.3,172.5 136.7,171.9 138.0,171.4 139.3,170.9 140.7,170.4 142.0,169.9 143.3,169.4 144.7,168.9 146.0,168.5 147.3,168.0 148.7,167.6 150.0,167.2 151.3,166.8 152.7,166.4 154.0,166.0 155.3,165.6 156.7,165.3 158.0,164.9 159.3,164.6 160.7,164.2 162.0,163.9 163.3,163.6 164.7,163.3 166.0,163.0 167.3,162.7 168.7,162.4 170.0,162.1 171.3,161.8 172.7,161.5 174.0,161.2 175.3,160.9 176.7,160.6 178.0,160.2 179.3,159.9 180.7,159.6 182.0,159.2 183.3,158.8 184.7,158.4 186.0,158.0 187.3,157.5 188.7,157.0 190.0,156.5 191.3,156.0 192.7,155.4 194.0,154.8 195.3,154.2 196.7,153.5 198.0,152.8 199.3,152.1 200.7,151.2 202.0,150.4 203.3,149.5 204.7,148.6 206.0,147.6 207.3,146.7 208.7,145.7 210.0,144.6 211.3,143.6 212.7,142.5 214.0,141.5 215.3,140.4 216.7,139.3 218.0,138.3 219.3,137.2 220.7,136.2 222.0,135.3 223.3,134.5 224.7,133.8 226.0,133.2 227.3,132.6 228.7,132.1 230.0,131.6 231.3,131.1 232.7,130.7 234.0,130.3 235.3,129.9 236.7,129.6 238.0,129.3 239.3,129.0 240.7,128.7 242.0,128.5 243.3,128.3 244.7,128.1 246.0,127.9 247.3,127.7 248.7,127.5 250.0,127.3 251.3,127.2 252.7,127.0 254.0,126.9 255.3,126.8 256.7,126.7 258.0,126.5 259.3,126.4 260.7,126.3 262.0,126.2 263.3,126.1 264.7,126.0 266.0,125.9 267.3,125.8 268.7,125.7 270.0,125.6 271.3,125.5 272.7,125.4 274.0,125.4 275.3,125.3 276.7,125.2 278.0,125.1 279.3,125.0 280.7,125.0 282.0,124.9 283.3,124.8 284.7,124.7 286.0,124.7 287.3,124.6 288.7,124.5 290.0,124.5 291.3,124.4 292.7,124.3 294.0,124.3 295.3,124.2 296.7,124.1 298.0,124.1 299.3,124.0 300.7,123.9 302.0,123.9 303.3,123.8 304.7,123.8 306.0,123.7 307.3,123.6 308.7,123.6 310.0,123.5 311.3,123.5 312.7,123.4 314.0,123.4 315.3,123.3 316.7,123.3 318.0,123.2 319.3,123.2 320.7,123.1 322.0,123.1 323.3,123.0 324.7,123.0 326.0,122.9 327.3,122.9 328.7,122.8 330.0,122.8 331.3,122.7 332.7,122.7 334.0,122.6 335.3,121.1 336.7,119.7 338.0,118.4 339.3,117.4 340.7,116.5 342.0,115.8 343.3,115.1 344.7,114.6 346.0,114.2 347.3,113.9 348.7,113.6 350.0,113.5 351.3,113.3 352.7,113.2 354.0,113.0 355.3,112.9 356.7,112.8 358.0,112.7 359.3,112.6 360.7,112.6 362.0,112.5 363.3,112.4 364.7,112.4 366.0,112.4 367.3,112.3 368.7,112.3 370.0,112.3 371.3,112.2 372.7,112.2 374.0,112.2 375.3,112.2 376.7,112.1 378.0,112.1 379.3,112.1 380.7,112.1 382.0,112.1 383.3,112.1 384.7,112.1 386.0,112.1 387.3,112.1 388.7,112.1 390.0,112.1 391.3,112.1 392.7,112.0 394.0,112.0 395.3,112.0 396.7,112.0 398.0,112.0 399.3,112.0 400.7,112.0 402.0,112.0 403.3,112.0 404.7,112.0 406.0,112.0 407.3,112.0 408.7,112.0 410.0,112.0 411.3,112.0 412.7,112.0 414.0,112.0 415.3,112.0 416.7,112.0 418.0,112.0 419.3,112.0 420.7,112.0 422.0,112.0 423.3,112.0 424.7,112.0 426.0,112.0 427.3,112.0 428.7,112.0 430.0,112.0 431.3,112.0 432.7,112.0 434.0,112.0 435.3,112.0 436.7,112.0 438.0,112.0 439.3,112.0 440.7,112.0 442.0,112.0 443.3,112.0 444.7,112.0 446.0,112.0 447.3,112.0 448.7,112.0 450.0,112.0 451.3,112.0 452.7,112.0 454.0,112.0 455.3,112.0 456.7,112.0 458.0,112.0 459.3,112.0 460.7,112.0 462.0,112.0 463.3,112.0 464.7,112.0 466.0,112.0 467.3,112.0 468.7,112.0 470.0,112.0 471.3,112.0 472.7,112.0 474.0,112.0 475.3,112.0 476.7,112.0 478.0,112.0 479.3,112.0 480.7,112.0 482.0,112.0 483.3,112.0 484.7,112.0 486.0,112.0 487.3,112.0 488.7,112.0 490.0,112.0 491.3,112.0 492.7,112.0 494.0,112.0 495.3,112.0 496.7,112.0 498.0,112.0 499.3,112.0 500.7,112.0 502.0,112.0 503.3,112.0 504.7,112.0 506.0,112.0 507.3,112.0 508.7,112.0 510.0,112.0 511.3,112.0 512.7,112.0 514.0,112.0 515.3,112.0 516.7,112.0 518.0,112.0 519.3,112.0 520.7,112.0 522.0,112.0 523.3,112.0 524.7,112.0 526.0,112.0 527.3,112.0 528.7,112.0 530.0,112.0 531.3,112.0 532.7,112.0 534.0,112.0 535.3,112.0 536.7,112.0 538.0,112.0 539.3,112.0 540.7,112.0 542.0,112.0 543.3,112.0 544.7,112.0 546.0,112.0 547.3,112.0 548.7,112.0 550.0,112.0 551.3,112.0 552.7,112.0 554.0,112.0 555.3,112.0 556.7,112.0 558.0,112.0 559.3,112.0 560.7,112.0 562.0,112.0 563.3,112.0 564.7,112.0 566.0,112.0 567.3,112.0 568.7,112.0 570.0,112.0 571.3,112.0 572.7,112.0 574.0,112.0 575.3,112.0 576.7,112.0 578.0,112.0 579.3,112.0 580.7,112.0 582.0,112.0 583.3,112.0 584.7,112.0 586.0,112.0 587.3,112.0 588.7,112.0 590.0,112.0 591.3,112.0 592.7,112.0 594.0,112.0 595.3,112.0 596.7,112.0 598.0,112.0 599.3,112.0 600.7,112.0 602.0,112.0 603.3,112.0 604.7,112.0 606.0,112.0 607.3,112.0 608.7,112.0 610.0,112.0" fill="none" stroke="#1f77b4" stroke-width="2.2"/>
<polyline points="78.0,109.8 79.3,109.8 80.7,109.8 82.0,109.8 83.3,109.8 84.7,109.9 86.0,117.9 87.3,134.8 88.7,152.5 90.0,167.5 91.3,176.1 92.7,181.3 94.0,186.9 95.3,191.0 96.7,193.4 98.0,194.6 99.3,194.8 100.7,194.4 102.0,193.3 103.3,192.1 104.7,190.8 106.0,189.5 107.3,188.2 108.7,187.0 110.0,185.9 111.3,184.8 112.7,183.7 114.0,182.7 115.3,181.8 116.7,180.9 118.0,180.0 119.3,179.2 120.7,178.4 122.0,177.7 123.3,177.0 124.7,176.3 126.0,175.7 127.3,175.1 128.7,174.5 130.0,174.0 131.3,173.5 132.7,173.0 134.0,172.6 135.3,172.2 136.7,171.8 138.0,171.4 139.3,171.1 140.7,170.7 142.0,170.4 143.3,170.1 144.7,169.8 146.0,169.5 147.3,169.3 148.7,169.0 150.0,168.7 151.3,168.5 152.7,168.2 154.0,168.0 155.3,168.0 156.7,167.9 158.0,167.8 159.3,167.7 160.7,167.6 162.0,167.5 163.3,167.5 164.7,167.5 166.0,167.6 167.3,167.7 168.7,168.0 170.0,168.3 171.3,168.6 172.7,169.1 174.0,169.6 175.3,170.3 176.7,171.0 178.0,171.8 179.3,172.7 180.7,173.8 182.0,174.8 183.3,176.0 184.7,177.3 186.0,178.7 187.3,180.2 188.7,181.8 190.0,183.6 191.3,185.4 192.7,187.4 194.0,189.5 195.3,191.8 196.7,194.2 198.0,196.8 199.3,199.4 200.7,202.1 202.0,204.6 203.3,207.1 204.7,209.5 206.0,211.8 207.3,214.0 208.7,216.1 210.0,218.0 211.3,219.8 212.7,221.4 214.0,222.8 215.3,224.0 216.7,225.1 218.0,225.9 219.3,226.6 220.7,227.2 222.0,227.7 223.3,228.1 224.7,228.4 226.0,228.7 227.3,228.9 228.7,229.0 230.0,229.1 231.3,229.1 232.7,229.1 234.0,229.0 235.3,229.0 236.7,228.8 238.0,228.7 239.3,228.6 240.7,228.5 242.0,228.3 243.3,228.2 244.7,228.0 246.0,227.9 247.3,227.7 248.7,227.6 250.0,227.5 251.3,227.3 252.7,227.2 254.0,227.1 255.3,226.9 256.7,226.8 258.0,226.7 259.3,226.6 260.7,226.5 262.0,226.4 263.3,226.3 264.7,226.2 266.0,226.1 267.3,226.0 268.7,225.9 270.0,225.8 271.3,225.7 272.7,225.6 274.0,225.6 275.3,225.5 276.7,225.4 278.0,225.3 279.3,225.2 280.7,225.2 282.0,225.1 283.3,225.0 284.7,224.9 286.0,224.9 287.3,224.8 288.7,224.7 290.0,224.7 291.3,224.6 292.7,224.5 294.0,224.5 295.3,224.4 296.7,224.3 298.0,224.3 299.3,224.2 300.7,224.1 302.0,224.1 303.3,224.0 304.7,224.0 306.0,223.9 307.3,223.8 308.7,223.8 310.0,223.7 311.3,223.7 312.7,223.6 314.0,223.6 315.3,223.5 316.7,223.4 318.0,223.4 319.3,223.3 320.7,223.3 322.0,223.2 323.3,223.2 324.7,223.1 326.0,223.1 327.3,223.0 328.7,223.0 330.0,222.9 331.3,222.9 332.7,222.9 334.0,222.8 335.3,221.3 336.7,219.9 338.0,218.6 339.3,217.6 340.7,216.7 342.0,216.0 343.3,215.3 344.7,214.8 346.0,214.4 347.3,214.0 348.7,213.8 350.0,213.7 351.3,213.5 352.7,213.3 354.0,213.2 355.3,213.1 356.7,213.0 358.0,212.9 359.3,212.8 360.7,212.8 362.0,212.7 363.3,212.6 364.7,212.6 366.0,212.5 367.3,212.5 368.7,212.5 370.0,212.4 371.3,212.4 372.7,212.4 374.0,212.4 375.3,212.4 376.7,212.3 378.0,212.3 379.3,212.3 380.7,212.3 382.0,212.3 383.3,212.3 384.7,212.3 386.0,212.3 387.3,212.3 388.7,212.2 390.0,212.2 391.3,212.2 392.7,212.2 394.0,212.2 395.3,212.2 396.7,212.2 398.0,212.2 399.3,212.2 400.7,212.2 402.0,212.2 403.3,212.2 404.7,212.2 406.0,212.2 407.3,212.2 408.7,212.2 410.0,212.2 411.3,212.2 412.7,212.2 414.0,212.2 415.3,212.2 416.7,212.2 418.0,212.2 419.3,212.2 420.7,212.2 422.0,212.2 423.3,212.2 424.7,212.2 426.0,212.2 427.3,212.2 428.7,212.2 430.0,212.2 431.3,212.2 432.7,212.2 434.0,212.2 435.3,212.2 436.7,212.2 438.0,212.2 439.3,212.2 440.7,212.2 442.0,212.2 443.3,212.2 444.7,212.2 446.0,212.2 447.3,212.2 448.7,212.2 450.0,212.2 451.3,212.2 452.7,212.2 454.0,212.2 455.3,212.2 456.7,212.2 458.0,212.2 459.3,212.2 460.7,212.2 462.0,212.2 463.3,212.2 464.7,212.2 466.0,212.2 467.3,212.2 468.7,212.2 470.0,212.2 471.3,212.2 472.7,212.2 474.0,212.2 475.3,212.2 476.7,212.2 478.0,212.2 479.3,212.2 480.7,212.2 482.0,212.2 483.3,212.2 484.7,212.2 486.0,212.2 487.3,212.2 488.7,212.2 490.0,212.2 491.3,212.2 492.7,212.2 494.0,212.2 495.3,212.2 496.7,212.2 498.0,212.2 499.3,212.2 500.7,212.2 502.0,212.2 503.3,212.2 504.7,212.2 506.0,212.2 507.3,212.2 508.7,212.2 510.0,212.2 511.3,212.2 512.7,212.2 514.0,212.2 515.3,212.2 516.7,212.2 518.0,212.2 519.3,212.2 520.7,212.2 522.0,212.2 523.3,212.2 524.7,212.2 526.0,212.2 527.3,212.2 528.7,212.2 530.0,212.2 531.3,212.2 532.7,212.2 534.0,212.2 535.3,212.2 536.7,212.2 538.0,212.2 539.3,212.2 540.7,212.2 542.0,212.2 543.3,212.2 544.7,212.2 546.0,212.2 547.3,212.2 548.7,212.2 550.0,212.2 551.3,212.2 552.7,212.2 554.0,212.2 555.3,212.2 556.7,212.2 558.0,212.2 559.3,212.2 560.7,212.2 562.0,212.2 563.3,212.2 564.7,212.2 566.0,212.2 567.3,212.2 568.7,212.2 570.0,212.2 571.3,212.2 572.7,212.2 574.0,212.2 575.3,212.2 576.7,212.2 578.0,212.2 579.3,212.2 580.7,212.2 582.0,212.2 583.3,212.2 584.7,212.2 586.0,212.2 587.3,212.2 588.7,212.2 590.0,212.2 591.3,212.2 592.7,212.2 594.0,212.2 595.3,212.2 596.7,212.2 598.0,212.2 599.3,212.2 600.7,212.2 602.0,212.2 603.3,212.2 604.7,212.2 606.0,212.2 607.3,212.2 608.7,212.2 610.0,212.2" fill="none" stroke="#222222" stroke-width="2.2" stroke-dasharray="7 5"/>
<text x="344.0" y="26" font-size="16" text-anchor="middle" font-weight="bold">All-optical switching (0-D 4TM + LLB, single cell)</text>
<text x="22" y="161.0" font-size="12" text-anchor="middle" transform="rotate(-90 22 161.0)">M_x  (MA/m)</text>
<line x1="622" y1="64" x2="644" y2="64" stroke="#d62728" stroke-width="3"/><text x="649" y="68" font-size="12">FeCo (TM)</text>
<line x1="622" y1="82" x2="644" y2="82" stroke="#1f77b4" stroke-width="3"/><text x="649" y="86" font-size="12">Gd (RE)</text>
<line x1="622" y1="100" x2="644" y2="100" stroke="#222222" stroke-width="3"/><text x="649" y="104" font-size="12">Net M_x</text>
<rect x="78" y="330" width="532" height="150" fill="none" stroke="#999"/>
<line x1="78" y1="480.0" x2="610" y2="480.0" stroke="#eee"/><text x="70" y="484.0" font-size="11" text-anchor="end" fill="#333">0</text>
<line x1="78" y1="450.0" x2="610" y2="450.0" stroke="#eee"/><text x="70" y="454.0" font-size="11" text-anchor="end" fill="#333">500</text>
<line x1="78" y1="420.0" x2="610" y2="420.0" stroke="#eee"/><text x="70" y="424.0" font-size="11" text-anchor="end" fill="#333">1000</text>
<line x1="78" y1="390.0" x2="610" y2="390.0" stroke="#eee"/><text x="70" y="394.0" font-size="11" text-anchor="end" fill="#333">1500</text>
<line x1="78" y1="360.0" x2="610" y2="360.0" stroke="#eee"/><text x="70" y="364.0" font-size="11" text-anchor="end" fill="#333">2000</text>
<line x1="78" y1="330.0" x2="610" y2="330.0" stroke="#eee"/><text x="70" y="334.0" font-size="11" text-anchor="end" fill="#333">2500</text>
<polyline points="78.0,461.0 79.3,459.7 80.7,458.2 82.0,456.2 83.3,453.8 84.7,450.9 86.0,447.4 87.3,443.4 88.7,438.7 90.0,433.6 91.3,427.9 92.7,421.8 94.0,415.3 95.3,408.6 96.7,401.7 98.0,394.7 99.3,387.7 100.7,380.9 102.0,374.4 103.3,368.2 104.7,362.4 106.0,357.2 107.3,352.5 108.7,348.5 110.0,345.1 111.3,342.3 112.7,340.2 114.0,338.6 115.3,337.7 116.7,337.2 118.0,337.2 119.3,337.5 120.7,338.2 122.0,339.2 123.3,340.4 124.7,341.8 126.0,343.2 127.3,344.8 128.7,346.5 130.0,348.1 131.3,349.8 132.7,351.5 134.0,353.2 135.3,354.9 136.7,356.6 138.0,358.2 139.3,359.8 140.7,361.5 142.0,363.1 143.3,364.6 144.7,366.2 146.0,367.7 147.3,369.2 148.7,370.7 150.0,372.2 151.3,373.7 152.7,375.1 154.0,376.5 155.3,377.9 156.7,379.3 158.0,380.7 159.3,382.0 160.7,383.4 162.0,384.7 163.3,386.0 164.7,387.2 166.0,388.5 167.3,389.7 168.7,391.0 170.0,392.2 171.3,393.4 172.7,394.5 174.0,395.7 175.3,396.8 176.7,397.9 178.0,399.1 179.3,400.1 180.7,401.2 182.0,402.3 183.3,403.3 184.7,404.3 186.0,405.3 187.3,406.3 188.7,407.3 190.0,408.2 191.3,409.2 192.7,410.1 194.0,411.0 195.3,411.9 196.7,412.7 198.0,413.6 199.3,414.4 200.7,415.3 202.0,416.1 203.3,416.9 204.7,417.7 206.0,418.4 207.3,419.2 208.7,419.9 210.0,420.6 211.3,421.3 212.7,422.0 214.0,422.7 215.3,423.4 216.7,424.0 218.0,424.7 219.3,425.3 220.7,425.9 222.0,426.5 223.3,427.1 224.7,427.6 226.0,428.2 227.3,428.8 228.7,429.3 230.0,429.8 231.3,430.3 232.7,430.8 234.0,431.3 235.3,431.8 236.7,432.3 238.0,432.7 239.3,433.2 240.7,433.6 242.0,434.1 243.3,434.5 244.7,434.9 246.0,435.3 247.3,435.7 248.7,436.1 250.0,436.4 251.3,436.8 252.7,437.2 254.0,437.5 255.3,437.9 256.7,438.2 258.0,438.5 259.3,438.9 260.7,439.2 262.0,439.5 263.3,439.8 264.7,440.1 266.0,440.4 267.3,440.7 268.7,440.9 270.0,441.2 271.3,441.5 272.7,441.8 274.0,442.0 275.3,442.3 276.7,442.5 278.0,442.8 279.3,443.0 280.7,443.2 282.0,443.5 283.3,443.7 284.7,443.9 286.0,444.1 287.3,444.3 288.7,444.5 290.0,444.7 291.3,444.9 292.7,445.1 294.0,445.3 295.3,445.5 296.7,445.7 298.0,445.9 299.3,446.1 300.7,446.3 302.0,446.4 303.3,446.6 304.7,446.8 306.0,446.9 307.3,447.1 308.7,447.3 310.0,447.4 311.3,447.6 312.7,447.7 314.0,447.9 315.3,448.0 316.7,448.2 318.0,448.3 319.3,448.5 320.7,448.6 322.0,448.8 323.3,448.9 324.7,449.0 326.0,449.2 327.3,449.3 328.7,449.4 330.0,449.6 331.3,449.7 332.7,449.8 334.0,449.9 335.3,450.1 336.7,450.2 338.0,450.3 339.3,450.4 340.7,450.5 342.0,450.6 343.3,450.8 344.7,450.9 346.0,451.0 347.3,451.1 348.7,451.2 350.0,451.3 351.3,451.4 352.7,451.5 354.0,451.6 355.3,451.7 356.7,451.8 358.0,451.9 359.3,452.0 360.7,452.1 362.0,452.2 363.3,452.3 364.7,452.4 366.0,452.5 367.3,452.6 368.7,452.7 370.0,452.8 371.3,452.8 372.7,452.9 374.0,453.0 375.3,453.1 376.7,453.2 378.0,453.3 379.3,453.4 380.7,453.4 382.0,453.5 383.3,453.6 384.7,453.7 386.0,453.8 387.3,453.8 388.7,453.9 390.0,454.0 391.3,454.1 392.7,454.2 394.0,454.2 395.3,454.3 396.7,454.4 398.0,454.4 399.3,454.5 400.7,454.6 402.0,454.7 403.3,454.7 404.7,454.8 406.0,454.9 407.3,454.9 408.7,455.0 410.0,455.1 411.3,455.1 412.7,455.2 414.0,455.3 415.3,455.3 416.7,455.4 418.0,455.4 419.3,455.5 420.7,455.6 422.0,455.6 423.3,455.7 424.7,455.7 426.0,455.8 427.3,455.9 428.7,455.9 430.0,456.0 431.3,456.0 432.7,456.1 434.0,456.1 435.3,456.2 436.7,456.3 438.0,456.3 439.3,456.4 440.7,456.4 442.0,456.5 443.3,456.5 444.7,456.6 446.0,456.6 447.3,456.7 448.7,456.7 450.0,456.8 451.3,456.8 452.7,456.9 454.0,456.9 455.3,457.0 456.7,457.0 458.0,457.1 459.3,457.1 460.7,457.1 462.0,457.2 463.3,457.2 464.7,457.3 466.0,457.3 467.3,457.4 468.7,457.4 470.0,457.4 471.3,457.5 472.7,457.5 474.0,457.6 475.3,457.6 476.7,457.7 478.0,457.7 479.3,457.7 480.7,457.8 482.0,457.8 483.3,457.9 484.7,457.9 486.0,457.9 487.3,458.0 488.7,458.0 490.0,458.0 491.3,458.1 492.7,458.1 494.0,458.2 495.3,458.2 496.7,458.2 498.0,458.3 499.3,458.3 500.7,458.3 502.0,458.4 503.3,458.4 504.7,458.4 506.0,458.5 507.3,458.5 508.7,458.5 510.0,458.6 511.3,458.6 512.7,458.6 514.0,458.7 515.3,458.7 516.7,458.7 518.0,458.7 519.3,458.8 520.7,458.8 522.0,458.8 523.3,458.9 524.7,458.9 526.0,458.9 527.3,458.9 528.7,459.0 530.0,459.0 531.3,459.0 532.7,459.1 534.0,459.1 535.3,459.1 536.7,459.1 538.0,459.2 539.3,459.2 540.7,459.2 542.0,459.2 543.3,459.3 544.7,459.3 546.0,459.3 547.3,459.3 548.7,459.4 550.0,459.4 551.3,459.4 552.7,459.4 554.0,459.5 555.3,459.5 556.7,459.5 558.0,459.5 559.3,459.6 560.7,459.6 562.0,459.6 563.3,459.6 564.7,459.6 566.0,459.7 567.3,459.7 568.7,459.7 570.0,459.7 571.3,459.8 572.7,459.8 574.0,459.8 575.3,459.8 576.7,459.8 578.0,459.9 579.3,459.9 580.7,459.9 582.0,459.9 583.3,459.9 584.7,460.0 586.0,460.0 587.3,460.0 588.7,460.0 590.0,460.0 591.3,460.0 592.7,460.1 594.0,460.1 595.3,460.1 596.7,460.1 598.0,460.1 599.3,460.2 600.7,460.2 602.0,460.2 603.3,460.2 604.7,460.2 606.0,460.2 607.3,460.3 608.7,460.3 610.0,460.3" fill="none" stroke="#ff8c1a" stroke-width="2.2"/>
<polyline points="78.0,462.0 79.3,462.0 80.7,462.0 82.0,461.9 83.3,461.9 84.7,461.9 86.0,461.8 87.3,461.7 88.7,461.6 90.0,461.5 91.3,461.3 92.7,461.2 94.0,460.9 95.3,460.7 96.7,460.4 98.0,460.1 99.3,459.8 100.7,459.4 102.0,459.0 103.3,458.6 104.7,458.1 106.0,457.7 107.3,457.2 108.7,456.7 110.0,456.2 111.3,455.6 112.7,455.1 114.0,454.6 115.3,454.0 116.7,453.5 118.0,453.0 119.3,452.5 120.7,452.0 122.0,451.5 123.3,451.0 124.7,450.6 126.0,450.1 127.3,449.7 128.7,449.3 130.0,448.9 131.3,448.5 132.7,448.1 134.0,447.8 135.3,447.4 136.7,447.1 138.0,446.8 139.3,446.5 140.7,446.2 142.0,445.9 143.3,445.6 144.7,445.4 146.0,445.1 147.3,444.9 148.7,444.7 150.0,444.5 151.3,444.3 152.7,444.1 154.0,443.9 155.3,443.8 156.7,443.6 158.0,443.5 159.3,443.3 160.7,443.2 162.0,443.1 163.3,443.0 164.7,442.9 166.0,442.8 167.3,442.7 168.7,442.6 170.0,442.5 171.3,442.5 172.7,442.4 174.0,442.3 175.3,442.3 176.7,442.3 178.0,442.2 179.3,442.2 180.7,442.2 182.0,442.2 183.3,442.2 184.7,442.2 186.0,442.2 187.3,442.2 188.7,442.2 190.0,442.2 191.3,442.2 192.7,442.3 194.0,442.3 195.3,442.3 196.7,442.4 198.0,442.4 199.3,442.5 200.7,442.5 202.0,442.6 203.3,442.6 204.7,442.7 206.0,442.7 207.3,442.8 208.7,442.9 210.0,443.0 211.3,443.0 212.7,443.1 214.0,443.2 215.3,443.3 216.7,443.4 218.0,443.4 219.3,443.5 220.7,443.6 222.0,443.7 223.3,443.8 224.7,443.9 226.0,444.0 227.3,444.1 228.7,444.2 230.0,444.3 231.3,444.4 232.7,444.5 234.0,444.6 235.3,444.7 236.7,444.8 238.0,444.9 239.3,445.0 240.7,445.1 242.0,445.3 243.3,445.4 244.7,445.5 246.0,445.6 247.3,445.7 248.7,445.8 250.0,445.9 251.3,446.0 252.7,446.1 254.0,446.2 255.3,446.4 256.7,446.5 258.0,446.6 259.3,446.7 260.7,446.8 262.0,446.9 263.3,447.0 264.7,447.1 266.0,447.3 267.3,447.4 268.7,447.5 270.0,447.6 271.3,447.7 272.7,447.8 274.0,447.9 275.3,448.0 276.7,448.1 278.0,448.3 279.3,448.4 280.7,448.5 282.0,448.6 283.3,448.7 284.7,448.8 286.0,448.9 287.3,449.0 288.7,449.1 290.0,449.2 291.3,449.3 292.7,449.4 294.0,449.5 295.3,449.6 296.7,449.7 298.0,449.8 299.3,449.9 300.7,450.0 302.0,450.1 303.3,450.2 304.7,450.3 306.0,450.4 307.3,450.5 308.7,450.6 310.0,450.7 311.3,450.8 312.7,450.9 314.0,451.0 315.3,451.1 316.7,451.2 318.0,451.3 319.3,451.4 320.7,451.5 322.0,451.6 323.3,451.6 324.7,451.7 326.0,451.8 327.3,451.9 328.7,452.0 330.0,452.1 331.3,452.2 332.7,452.2 334.0,452.3 335.3,452.4 336.7,452.5 338.0,452.6 339.3,452.7 340.7,452.7 342.0,452.8 343.3,452.9 344.7,453.0 346.0,453.1 347.3,453.1 348.7,453.2 350.0,453.3 351.3,453.4 352.7,453.4 354.0,453.5 355.3,453.6 356.7,453.7 358.0,453.7 359.3,453.8 360.7,453.9 362.0,454.0 363.3,454.0 364.7,454.1 366.0,454.2 367.3,454.2 368.7,454.3 370.0,454.4 371.3,454.4 372.7,454.5 374.0,454.6 375.3,454.6 376.7,454.7 378.0,454.8 379.3,454.8 380.7,454.9 382.0,455.0 383.3,455.0 384.7,455.1 386.0,455.2 387.3,455.2 388.7,455.3 390.0,455.3 391.3,455.4 392.7,455.5 394.0,455.5 395.3,455.6 396.7,455.6 398.0,455.7 399.3,455.7 400.7,455.8 402.0,455.9 403.3,455.9 404.7,456.0 406.0,456.0 407.3,456.1 408.7,456.1 410.0,456.2 411.3,456.2 412.7,456.3 414.0,456.3 415.3,456.4 416.7,456.4 418.0,456.5 419.3,456.5 420.7,456.6 422.0,456.6 423.3,456.7 424.7,456.7 426.0,456.8 427.3,456.8 428.7,456.9 430.0,456.9 431.3,457.0 432.7,457.0 434.0,457.0 435.3,457.1 436.7,457.1 438.0,457.2 439.3,457.2 440.7,457.3 442.0,457.3 443.3,457.4 444.7,457.4 446.0,457.4 447.3,457.5 448.7,457.5 450.0,457.6 451.3,457.6 452.7,457.6 454.0,457.7 455.3,457.7 456.7,457.8 458.0,457.8 459.3,457.8 460.7,457.9 462.0,457.9 463.3,457.9 464.7,458.0 466.0,458.0 467.3,458.1 468.7,458.1 470.0,458.1 471.3,458.2 472.7,458.2 474.0,458.2 475.3,458.3 476.7,458.3 478.0,458.3 479.3,458.4 480.7,458.4 482.0,458.4 483.3,458.5 484.7,458.5 486.0,458.5 487.3,458.6 488.7,458.6 490.0,458.6 491.3,458.6 492.7,458.7 494.0,458.7 495.3,458.7 496.7,458.8 498.0,458.8 499.3,458.8 500.7,458.9 502.0,458.9 503.3,458.9 504.7,458.9 506.0,459.0 507.3,459.0 508.7,459.0 510.0,459.1 511.3,459.1 512.7,459.1 514.0,459.1 515.3,459.2 516.7,459.2 518.0,459.2 519.3,459.2 520.7,459.3 522.0,459.3 523.3,459.3 524.7,459.3 526.0,459.4 527.3,459.4 528.7,459.4 530.0,459.4 531.3,459.5 532.7,459.5 534.0,459.5 535.3,459.5 536.7,459.5 538.0,459.6 539.3,459.6 540.7,459.6 542.0,459.6 543.3,459.7 544.7,459.7 546.0,459.7 547.3,459.7 548.7,459.7 550.0,459.8 551.3,459.8 552.7,459.8 554.0,459.8 555.3,459.8 556.7,459.9 558.0,459.9 559.3,459.9 560.7,459.9 562.0,459.9 563.3,460.0 564.7,460.0 566.0,460.0 567.3,460.0 568.7,460.0 570.0,460.0 571.3,460.1 572.7,460.1 574.0,460.1 575.3,460.1 576.7,460.1 578.0,460.2 579.3,460.2 580.7,460.2 582.0,460.2 583.3,460.2 584.7,460.2 586.0,460.2 587.3,460.3 588.7,460.3 590.0,460.3 591.3,460.3 592.7,460.3 594.0,460.3 595.3,460.4 596.7,460.4 598.0,460.4 599.3,460.4 600.7,460.4 602.0,460.4 603.3,460.4 604.7,460.5 606.0,460.5 607.3,460.5 608.7,460.5 610.0,460.5" fill="none" stroke="#2ca02c" stroke-width="2.2"/>
<polyline points="78.0,461.9 79.3,461.8 80.7,461.5 82.0,461.0 83.3,460.4 84.7,459.5 86.0,458.4 87.3,457.1 88.7,455.4 90.0,453.5 91.3,451.2 92.7,448.6 94.0,445.6 95.3,442.3 96.7,438.7 98.0,434.9 99.3,430.7 100.7,426.4 102.0,421.9 103.3,417.3 104.7,412.7 106.0,408.0 107.3,403.4 108.7,398.9 110.0,394.6 111.3,390.5 112.7,386.6 114.0,383.0 115.3,379.7 116.7,376.6 118.0,373.9 119.3,371.5 120.7,369.4 122.0,367.6 123.3,366.1 124.7,364.8 126.0,363.8 127.3,363.0 128.7,362.4 130.0,362.0 131.3,361.7 132.7,361.6 134.0,361.6 135.3,361.7 136.7,362.0 138.0,362.3 139.3,362.7 140.7,363.1 142.0,363.7 143.3,364.2 144.7,364.9 146.0,365.5 147.3,366.2 148.7,367.0 150.0,367.7 151.3,368.5 152.7,369.4 154.0,370.2 155.3,371.1 156.7,372.0 158.0,372.9 159.3,373.8 160.7,374.7 162.0,375.7 163.3,376.6 164.7,377.6 166.0,378.6 167.3,379.5 168.7,380.5 170.0,381.5 171.3,382.5 172.7,383.5 174.0,384.5 175.3,385.5 176.7,386.5 178.0,387.5 179.3,388.5 180.7,389.4 182.0,390.4 183.3,391.4 184.7,392.4 186.0,393.4 187.3,394.3 188.7,395.3 190.0,396.2 191.3,397.2 192.7,398.1 194.0,399.1 195.3,400.0 196.7,400.9 198.0,401.8 199.3,402.7 200.7,403.6 202.0,404.5 203.3,405.4 204.7,406.2 206.0,407.1 207.3,407.9 208.7,408.8 210.0,409.6 211.3,410.4 212.7,411.2 214.0,412.0 215.3,412.8 216.7,413.5 218.0,414.3 219.3,415.0 220.7,415.8 222.0,416.5 223.3,417.2 224.7,417.9 226.0,418.6 227.3,419.3 228.7,420.0 230.0,420.6 231.3,421.3 232.7,421.9 234.0,422.5 235.3,423.1 236.7,423.7 238.0,424.3 239.3,424.9 240.7,425.5 242.0,426.0 243.3,426.6 244.7,427.1 246.0,427.7 247.3,428.2 248.7,428.7 250.0,429.2 251.3,429.7 252.7,430.2 254.0,430.7 255.3,431.1 256.7,431.6 258.0,432.0 259.3,432.5 260.7,432.9 262.0,433.3 263.3,433.7 264.7,434.1 266.0,434.5 267.3,434.9 268.7,435.3 270.0,435.7 271.3,436.1 272.7,436.4 274.0,436.8 275.3,437.1 276.7,437.5 278.0,437.8 279.3,438.1 280.7,438.5 282.0,438.8 283.3,439.1 284.7,439.4 286.0,439.7 287.3,440.0 288.7,440.3 290.0,440.6 291.3,440.8 292.7,441.1 294.0,441.4 295.3,441.6 296.7,441.9 298.0,442.2 299.3,442.4 300.7,442.6 302.0,442.9 303.3,443.1 304.7,443.4 306.0,443.6 307.3,443.8 308.7,444.0 310.0,444.2 311.3,444.5 312.7,444.7 314.0,444.9 315.3,445.1 316.7,445.3 318.0,445.5 319.3,445.7 320.7,445.8 322.0,446.0 323.3,446.2 324.7,446.4 326.0,446.6 327.3,446.7 328.7,446.9 330.0,447.1 331.3,447.3 332.7,447.4 334.0,447.6 335.3,447.7 336.7,447.9 338.0,448.0 339.3,448.2 340.7,448.4 342.0,448.5 343.3,448.6 344.7,448.8 346.0,448.9 347.3,449.1 348.7,449.2 350.0,449.3 351.3,449.5 352.7,449.6 354.0,449.7 355.3,449.9 356.7,450.0 358.0,450.1 359.3,450.2 360.7,450.4 362.0,450.5 363.3,450.6 364.7,450.7 366.0,450.8 367.3,450.9 368.7,451.1 370.0,451.2 371.3,451.3 372.7,451.4 374.0,451.5 375.3,451.6 376.7,451.7 378.0,451.8 379.3,451.9 380.7,452.0 382.0,452.1 383.3,452.2 384.7,452.3 386.0,452.4 387.3,452.5 388.7,452.6 390.0,452.7 391.3,452.8 392.7,452.9 394.0,453.0 395.3,453.0 396.7,453.1 398.0,453.2 399.3,453.3 400.7,453.4 402.0,453.5 403.3,453.6 404.7,453.6 406.0,453.7 407.3,453.8 408.7,453.9 410.0,454.0 411.3,454.0 412.7,454.1 414.0,454.2 415.3,454.3 416.7,454.3 418.0,454.4 419.3,454.5 420.7,454.6 422.0,454.6 423.3,454.7 424.7,454.8 426.0,454.8 427.3,454.9 428.7,455.0 430.0,455.0 431.3,455.1 432.7,455.2 434.0,455.2 435.3,455.3 436.7,455.4 438.0,455.4 439.3,455.5 440.7,455.5 442.0,455.6 443.3,455.7 444.7,455.7 446.0,455.8 447.3,455.8 448.7,455.9 450.0,456.0 451.3,456.0 452.7,456.1 454.0,456.1 455.3,456.2 456.7,456.2 458.0,456.3 459.3,456.3 460.7,456.4 462.0,456.5 463.3,456.5 464.7,456.6 466.0,456.6 467.3,456.7 468.7,456.7 470.0,456.8 471.3,456.8 472.7,456.9 474.0,456.9 475.3,457.0 476.7,457.0 478.0,457.0 479.3,457.1 480.7,457.1 482.0,457.2 483.3,457.2 484.7,457.3 486.0,457.3 487.3,457.4 488.7,457.4 490.0,457.4 491.3,457.5 492.7,457.5 494.0,457.6 495.3,457.6 496.7,457.7 498.0,457.7 499.3,457.7 500.7,457.8 502.0,457.8 503.3,457.9 504.7,457.9 506.0,457.9 507.3,458.0 508.7,458.0 510.0,458.0 511.3,458.1 512.7,458.1 514.0,458.2 515.3,458.2 516.7,458.2 518.0,458.3 519.3,458.3 520.7,458.3 522.0,458.4 523.3,458.4 524.7,458.4 526.0,458.5 527.3,458.5 528.7,458.5 530.0,458.6 531.3,458.6 532.7,458.6 534.0,458.7 535.3,458.7 536.7,458.7 538.0,458.7 539.3,458.8 540.7,458.8 542.0,458.8 543.3,458.9 544.7,458.9 546.0,458.9 547.3,458.9 548.7,459.0 550.0,459.0 551.3,459.0 552.7,459.1 554.0,459.1 555.3,459.1 556.7,459.1 558.0,459.2 559.3,459.2 560.7,459.2 562.0,459.2 563.3,459.3 564.7,459.3 566.0,459.3 567.3,459.3 568.7,459.4 570.0,459.4 571.3,459.4 572.7,459.4 574.0,459.5 575.3,459.5 576.7,459.5 578.0,459.5 579.3,459.6 580.7,459.6 582.0,459.6 583.3,459.6 584.7,459.6 586.0,459.7 587.3,459.7 588.7,459.7 590.0,459.7 591.3,459.8 592.7,459.8 594.0,459.8 595.3,459.8 596.7,459.8 598.0,459.9 599.3,459.9 600.7,459.9 602.0,459.9 603.3,459.9 604.7,460.0 606.0,460.0 607.3,460.0 608.7,460.0 610.0,460.0" fill="none" stroke="#7a3fb3" stroke-width="2.2"/>
<text x="344.0" y="322" font-size="14" text-anchor="middle" font-weight="bold">Reservoir temperatures (4TM)</text>
<text x="22" y="405.0" font-size="12" text-anchor="middle" transform="rotate(-90 22 405.0)">T  (K)</text>
<text x="344.0" y="508" font-size="13" text-anchor="middle">time  (ps)</text>
<line x1="622" y1="348" x2="644" y2="348" stroke="#ff8c1a" stroke-width="3"/><text x="649" y="352" font-size="12">electron T_e</text>
<line x1="622" y1="366" x2="644" y2="366" stroke="#2ca02c" stroke-width="3"/><text x="649" y="370" font-size="12">lattice T_l</text>
<line x1="622" y1="384" x2="644" y2="384" stroke="#7a3fb3" stroke-width="3"/><text x="649" y="388" font-size="12">spin T_s</text>
<text x="78.0" y="496" font-size="11" text-anchor="middle" fill="#333">0.0</text>
<text x="211.0" y="496" font-size="11" text-anchor="middle" fill="#333">2.0</text>
<text x="343.99999999999994" y="496" font-size="11" text-anchor="middle" fill="#333">4.0</text>
<text x="477.0" y="496" font-size="11" text-anchor="middle" fill="#333">6.0</text>
<text x="610.0" y="496" font-size="11" text-anchor="middle" fill="#333">8.0</text>
</svg>
