<svg xmlns="http://www.w3.org/2000/svg" width="760" height="440" viewBox="0 0 760 440" font-family="sans-serif"><rect width="760" height="440" fill="white"/>
<rect x="72" y="42" width="660" height="342" fill="none" stroke="#999"/>
<line x1="72.0" y1="42" x2="72.0" y2="384" stroke="#eee"/><line x1="72" y1="384.0" x2="732" y2="384.0" stroke="#eee"/>
<text x="72.0" y="402" font-size="12" text-anchor="middle" fill="#333">0.01</text>
<text x="64" y="388.0" font-size="12" text-anchor="end" fill="#333">-1.07</text>
<line x1="237.0" y1="42" x2="237.0" y2="384" stroke="#eee"/><line x1="72" y1="298.5" x2="732" y2="298.5" stroke="#eee"/>
<text x="237.0" y="402" font-size="12" text-anchor="middle" fill="#333">0.708</text>
<text x="64" y="302.5" font-size="12" text-anchor="end" fill="#333">-0.54</text>
<line x1="402.0" y1="42" x2="402.0" y2="384" stroke="#eee"/><line x1="72" y1="213.0" x2="732" y2="213.0" stroke="#eee"/>
<text x="402.0" y="402" font-size="12" text-anchor="middle" fill="#333">1.41</text>
<text x="64" y="217.0" font-size="12" text-anchor="end" fill="#333">-0.0116</text>
<line x1="567.0" y1="42" x2="567.0" y2="384" stroke="#eee"/><line x1="72" y1="127.5" x2="732" y2="127.5" stroke="#eee"/>
<text x="567.0" y="402" font-size="12" text-anchor="middle" fill="#333">2.1</text>
<text x="64" y="131.5" font-size="12" text-anchor="end" fill="#333">0.517</text>
<line x1="732.0" y1="42" x2="732.0" y2="384" stroke="#eee"/><line x1="72" y1="42.0" x2="732" y2="42.0" stroke="#eee"/>
<text x="732.0" y="402" font-size="12" text-anchor="middle" fill="#333">2.8</text>
<text x="64" y="46.0" font-size="12" text-anchor="end" fill="#333">1.05</text>
<polyline points="72.0,76.6 74.4,99.4 76.7,118.3 79.1,134.0 81.5,147.1 83.8,158.0 86.2,167.0 88.6,174.6 90.9,180.8 93.3,186.0 95.7,190.4 98.0,194.0 100.4,196.9 102.8,199.4 105.1,201.5 107.5,203.2 109.8,204.5 112.2,205.6 114.6,206.3 116.9,206.9 119.3,207.2 121.7,207.5 124.0,207.6 126.4,207.7 128.8,207.8 131.1,207.9 133.5,207.9 135.9,208.0 138.2,208.0 140.6,208.1 143.0,208.1 145.3,208.1 147.7,208.2 150.1,208.2 152.4,208.3 154.8,208.3 157.2,208.4 159.5,208.4 161.9,208.5 164.3,208.5 166.6,208.6 169.0,208.6 171.4,208.7 173.7,208.8 176.1,208.8 178.5,208.9 180.8,208.9 183.2,209.0 185.5,209.1 187.9,209.1 190.3,209.2 192.6,209.3 195.0,209.3 197.4,209.4 199.7,209.5 202.1,209.6 204.5,209.7 206.8,209.7 209.2,209.8 211.6,209.9 213.9,210.0 216.3,210.1 218.7,210.2 221.0,210.3 223.4,210.4 225.8,210.5 228.1,210.6 230.5,210.8 232.9,210.9 235.2,211.0 237.6,211.2 240.0,211.3 242.3,211.5 244.7,211.6 247.1,211.8 249.4,212.0 251.8,212.1 254.2,212.2 256.5,212.3 258.9,212.5 261.2,212.6 263.6,212.7 266.0,212.9 268.3,213.0 270.7,213.2 273.1,213.3 275.4,213.4 277.8,213.5 280.2,213.7 282.5,213.8 284.9,213.9 287.3,214.0 289.6,214.1 292.0,214.2 294.4,214.4 296.7,214.7 299.1,214.9 301.5,215.2 303.8,215.4 306.2,215.6 308.6,215.8 310.9,216.0 313.3,216.1 315.7,216.3 318.0,216.6 320.4,216.8 322.8,217.0 325.1,217.2 327.5,217.5 329.8,217.7 332.2,218.0 334.6,218.3 336.9,218.6 339.3,219.0 341.7,219.4 344.0,219.8 346.4,220.2 348.8,220.7 351.1,221.1 353.5,221.7 355.9,222.2 358.2,222.8 360.6,223.5 363.0,224.1 365.3,224.8 367.7,225.6 370.1,226.4 372.4,227.2 374.8,228.1 377.2,229.0 379.5,229.9 381.9,231.0 384.3,232.0 386.6,233.1 389.0,234.3 391.4,235.5 393.7,236.8 396.1,238.1 398.5,239.5 400.8,241.0 403.2,242.6 405.5,244.2 407.9,246.0 410.3,247.8 412.6,249.7 415.0,251.8 417.4,253.9 419.7,256.2 422.1,258.6 424.5,261.1 426.8,263.9 429.2,266.7 431.6,269.8 433.9,273.0 436.3,276.5 438.7,280.2 441.0,284.1 443.4,288.2 445.8,292.3 448.1,296.5 450.5,300.7 452.9,305.0 455.2,309.4 457.6,313.7 460.0,318.1 462.3,322.4 464.7,326.7 467.1,330.2 469.4,333.2 471.8,336.0 474.2,338.8 476.5,341.5 478.9,344.1 481.2,346.6 483.6,349.0 486.0,351.2 488.3,353.3 490.7,355.2 493.1,357.0 495.4,358.6 497.8,360.1 500.2,361.5 502.5,362.7 504.9,363.8 507.3,364.8 509.6,365.6 512.0,366.4 514.4,367.1 516.7,367.6 519.1,368.2 521.5,368.6 523.8,369.0 526.2,369.3 528.6,369.6 530.9,369.9 533.3,370.1 535.7,370.3 538.0,370.5 540.4,370.6 542.8,370.7 545.1,370.8 547.5,370.9 549.8,371.0 552.2,371.0 554.6,371.1 556.9,371.1 559.3,371.1 561.7,371.2 564.0,371.2 566.4,371.2 568.8,371.2 571.1,371.3 573.5,371.3 575.9,371.3 578.2,371.3 580.6,371.3 583.0,371.3 585.3,371.3 587.7,371.3 590.1,371.3 592.4,371.3 594.8,371.3 597.2,371.3 599.5,371.3 601.9,371.3 604.3,371.3 606.6,371.3 609.0,371.3 611.4,371.3 613.7,371.3 616.1,371.3 618.5,371.3 620.8,371.3 623.2,371.3 625.5,371.3 627.9,371.3 630.3,371.3 632.6,371.3 635.0,371.3 637.4,371.3 639.7,371.3 642.1,371.3 644.5,371.3 646.8,371.3 649.2,371.3 651.6,371.3 653.9,371.3 656.3,371.3 658.7,371.3 661.0,371.3 663.4,371.3 665.8,371.3 668.1,371.3 670.5,371.3 672.9,371.3 675.2,371.3 677.6,371.3 680.0,371.3 682.3,371.3 684.7,371.3 687.1,371.3 689.4,371.3 691.8,371.3 694.2,371.3 696.5,371.3 698.9,371.3 701.2,371.3 703.6,371.3 706.0,371.3 708.3,371.3 710.7,371.3 713.1,371.3 715.4,371.3 717.8,371.3 720.2,371.3 722.5,371.3 724.9,371.3 727.3,371.3 729.6,371.3 732.0,371.3" fill="none" stroke="#1f77b4" stroke-width="2.4"/>
<polyline points="72.0,365.2 74.4,361.9 76.7,358.9 79.1,355.9 81.5,353.0 83.8,350.2 86.2,347.4 88.6,344.7 90.9,342.0 93.3,339.3 95.7,336.7 98.0,334.1 100.4,331.6 102.8,329.1 105.1,326.6 107.5,324.2 109.8,321.8 112.2,319.5 114.6,317.2 116.9,314.9 119.3,312.7 121.7,310.5 124.0,308.3 126.4,306.2 128.8,304.2 131.1,302.2 133.5,300.2 135.9,298.3 138.2,296.4 140.6,294.6 143.0,292.8 145.3,291.0 147.7,289.3 150.1,287.6 152.4,286.0 154.8,284.3 157.2,282.8 159.5,281.2 161.9,279.7 164.3,278.2 166.6,276.8 169.0,275.3 171.4,273.9 173.7,272.6 176.1,271.2 178.5,269.9 180.8,268.6 183.2,267.4 185.5,266.2 187.9,264.9 190.3,263.8 192.6,262.6 195.0,261.5 197.4,260.3 199.7,259.2 202.1,258.2 204.5,257.1 206.8,256.1 209.2,255.1 211.6,254.1 213.9,253.1 216.3,252.1 218.7,251.2 221.0,250.2 223.4,249.3 225.8,248.4 228.1,247.5 230.5,246.7 232.9,245.8 235.2,244.9 237.6,244.1 240.0,243.3 242.3,242.5 244.7,241.6 247.1,240.8 249.4,240.1 251.8,239.3 254.2,238.5 256.5,237.7 258.9,237.0 261.2,236.2 263.6,235.5 266.0,234.8 268.3,234.1 270.7,233.4 273.1,232.7 275.4,232.0 277.8,231.3 280.2,230.7 282.5,230.0 284.9,229.4 287.3,228.7 289.6,228.1 292.0,227.5 294.4,226.9 296.7,226.3 299.1,225.7 301.5,225.2 303.8,224.6 306.2,224.0 308.6,223.4 310.9,222.9 313.3,222.3 315.7,221.8 318.0,221.3 320.4,220.8 322.8,220.2 325.1,219.7 327.5,219.2 329.8,218.7 332.2,218.2 334.6,217.8 336.9,217.3 339.3,216.8 341.7,216.3 344.0,215.8 346.4,215.4 348.8,214.9 351.1,214.4 353.5,214.0 355.9,213.5 358.2,213.0 360.6,212.6 363.0,212.1 365.3,211.6 367.7,211.1 370.1,210.6 372.4,210.1 374.8,209.6 377.2,209.1 379.5,208.5 381.9,208.0 384.3,207.4 386.6,206.8 389.0,206.2 391.4,205.6 393.7,204.9 396.1,204.2 398.5,203.5 400.8,202.8 403.2,202.0 405.5,201.2 407.9,200.4 410.3,199.5 412.6,198.5 415.0,197.6 417.4,196.5 419.7,195.5 422.1,194.3 424.5,193.1 426.8,191.8 429.2,190.5 431.6,189.0 433.9,187.5 436.3,185.9 438.7,184.1 441.0,182.3 443.4,180.3 445.8,178.2 448.1,176.0 450.5,173.6 452.9,171.1 455.2,168.5 457.6,165.7 460.0,162.7 462.3,159.6 464.7,156.3 467.1,153.0 469.4,149.6 471.8,146.1 474.2,142.6 476.5,138.9 478.9,135.2 481.2,131.5 483.6,127.9 486.0,124.4 488.3,121.0 490.7,117.8 493.1,114.6 495.4,111.6 497.8,108.7 500.2,105.9 502.5,103.2 504.9,100.6 507.3,98.2 509.6,95.9 512.0,93.6 514.4,91.5 516.7,89.5 519.1,87.6 521.5,85.8 523.8,84.1 526.2,82.5 528.6,80.9 530.9,79.5 533.3,78.1 535.7,76.8 538.0,75.5 540.4,74.4 542.8,73.2 545.1,72.2 547.5,71.2 549.8,70.3 552.2,69.4 554.6,68.6 556.9,67.8 559.3,67.0 561.7,66.3 564.0,65.6 566.4,65.0 568.8,64.4 571.1,63.9 573.5,63.3 575.9,62.8 578.2,62.4 580.6,61.9 583.0,61.5 585.3,61.1 587.7,60.7 590.1,60.4 592.4,60.0 594.8,59.7 597.2,59.4 599.5,59.2 601.9,58.9 604.3,58.6 606.6,58.4 609.0,58.2 611.4,58.0 613.7,57.8 616.1,57.6 618.5,57.4 620.8,57.3 623.2,57.1 625.5,57.0 627.9,56.8 630.3,56.7 632.6,56.6 635.0,56.4 637.4,56.3 639.7,56.2 642.1,56.1 644.5,56.0 646.8,55.9 649.2,55.9 651.6,55.8 653.9,55.7 656.3,55.6 658.7,55.6 661.0,55.5 663.4,55.5 665.8,55.4 668.1,55.4 670.5,55.3 672.9,55.3 675.2,55.2 677.6,55.2 680.0,55.1 682.3,55.1 684.7,55.1 687.1,55.0 689.4,55.0 691.8,55.0 694.2,54.9 696.5,54.9 698.9,54.9 701.2,54.9 703.6,54.8 706.0,54.8 708.3,54.8 710.7,54.8 713.1,54.8 715.4,54.8 717.8,54.7 720.2,54.7 722.5,54.7 724.9,54.7 727.3,54.7 729.6,54.7 732.0,54.7" fill="none" stroke="#d62728" stroke-width="2.4"/>
<text x="402.0" y="24" font-size="16" text-anchor="middle" font-weight="bold">All-optical switching (4TM + LLB)</text>
<text x="402.0" y="426" font-size="13" text-anchor="middle">time  (ps)</text>
<text x="18" y="213.0" font-size="13" text-anchor="middle" transform="rotate(-90 18 213.0)">reduced magnetization m_x</text>
<line x1="582" y1="58" x2="606" y2="58" stroke="#1f77b4" stroke-width="3"/><text x="612" y="62" font-size="12">m_TM,x  (FeCo)</text>
<line x1="582" y1="76" x2="606" y2="76" stroke="#d62728" stroke-width="3"/><text x="612" y="80" font-size="12">m_RE,x  (Gd)</text>
</svg>
